{
  "accessors": [
    {
      "bufferView": 2,
      "componentType": 5126,
      "count": 65532,
      "max": [
        6.207726001739502,
        -16.565797805786133,
        7.6617770195007324
      ],
      "min": [
        -26.465534210205078,
        -33.624866485595703,
        -11.354412078857422
      ],
      "type": "VEC3"
    },
    {
      "bufferView": 2,
      "byteOffset": 786384,
      "componentType": 5126,
      "count": 65532,
      "max": [
        0.99976366758346558,
        0.99999243021011353,
        0.99951171875
      ],
      "min": [
        -0.99932175874710083,
        -0.99980783462524414,
        -0.99996805191040039
      ],
      "type": "VEC3"
    },
    {
      "bufferView": 3,
      "componentType": 5126,
      "count": 65532,
      "max": [
        0.99996393918991089,
        0.99984443187713623,
        0.99989885091781616,
        1
      ],
      "min": [
        -0.99974900484085083,
        -0.99993038177490234,
        -0.99999713897705078,
        -1
      ],
      "type": "VEC4"
    },
    {
      "bufferView": 1,
      "componentType": 5126,
      "count": 65532,
      "max": [
        0.99703401327133179,
        0.99919301271438599
      ],
      "min": [
        0.0050989999435842037,
        0.002251999918371439
      ],
      "type": "VEC2"
    },
    {
      "bufferView": 0,
      "componentType": 5125,
      "count": 286386,
      "max": [
        65531
      ],
      "min": [
        0
      ],
      "type": "SCALAR"
    },
    {
      "bufferView": 2,
      "byteOffset": 1572768,
      "componentType": 5126,
      "count": 4732,
      "max": [
        -0.12186100333929062,
        -16.536870956420898,
        7.5823779106140137
      ],
      "min": [
        -22.147661209106445,
        -33.424003601074219,
        -11.33576774597168
      ],
      "type": "VEC3"
    },
    {
      "bufferView": 2,
      "byteOffset": 1629552,
      "componentType": 5126,
      "count": 4732,
      "max": [
        0.99878120422363281,
        0.99962896108627319,
        0.94302225112915039
      ],
      "min": [
        -0.99800628423690796,
        -0.99550026655197144,
        -0.99989700317382812
      ],
      "type": "VEC3"
    },
    {
      "bufferView": 3,
      "byteOffset": 1048512,
      "componentType": 5126,
      "count": 4732,
      "max": [
        0.99592459201812744,
        0.98724240064620972,
        0.99355089664459229,
        1
      ],
      "min": [
        -0.98122060298919678,
        -0.99750262498855591,
        -0.99989360570907593,
        -1
      ],
      "type": "VEC4"
    },
    {
      "bufferView": 1,
      "byteOffset": 524256,
      "componentType": 5126,
      "count": 4732,
      "max": [
        0.98198497295379639,
        0.99861598014831543
      ],
      "min": [
        0.022765999659895897,
        0.0035029998980462551
      ],
      "type": "VEC2"
    },
    {
      "bufferView": 0,
      "byteOffset": 1145544,
      "componentType": 5125,
      "count": 13611,
      "max": [
        4731
      ],
      "min": [
        0
      ],
      "type": "SCALAR"
    }
  ],
  "asset": {
    "extras": {
      "author": "Máté Varga (https://sketchfab.com/waner94)",
      "license": "CC-BY-4.0 (http://creativecommons.org/licenses/by/4.0/)",
      "source": "https://sketchfab.com/models/75902146aa3a40f48a9004c12d9377c5",
      "title": "Gravel"
    },
    "generator": "Sketchfab-3.18.2",
    "version": "2.0"
  },
  "bufferViews": [
    {
      "buffer": 0,
      "byteLength": 1199988,
      "byteOffset": 0,
      "name": "floatBufferViews",
      "target": 34963
    },
    {
      "buffer": 0,
      "byteLength": 562112,
      "byteOffset": 1199988,
      "byteStride": 8,
      "name": "floatBufferViews",
      "target": 34962
    },
    {
      "buffer": 0,
      "byteLength": 1686336,
      "byteOffset": 1762100,
      "byteStride": 12,
      "name": "floatBufferViews",
      "target": 34962
    },
    {
      "buffer": 0,
      "byteLength": 1124224,
      "byteOffset": 3448436,
      "byteStride": 16,
      "name": "floatBufferViews",
      "target": 34962
    }
  ],
  "buffers": [
    {
      "byteLength": 4572660,
      "uri": "scene.bin"
    }
  ],
  "images": [
    {
      "uri": "textures/material_0_baseColor.jpeg"
    }
  ],
  "materials": [
    {
      "doubleSided": true,
      "emissiveFactor": [
        0,
        0,
        0
      ],
      "name": "material_0",
      "pbrMetallicRoughness": {
        "baseColorFactor": [
          1,
          1,
          1,
          1
        ],
        "baseColorTexture": {
          "index": 0,
          "texCoord": 0
        },
        "metallicFactor": 0,
        "roughnessFactor": 0.59999999999999998
      }
    }
  ],
  "meshes": [
    {
      "primitives": [
        {
          "attributes": {
            "NORMAL": 1,
            "POSITION": 0,
            "TANGENT": 2,
            "TEXCOORD_0": 3
          },
          "indices": 4,
          "material": 0,
          "mode": 4
        }
      ]
    },
    {
      "primitives": [
        {
          "attributes": {
            "NORMAL": 6,
            "POSITION": 5,
            "TANGENT": 7,
            "TEXCOORD_0": 8
          },
          "indices": 9,
          "material": 0,
          "mode": 4
        }
      ]
    }
  ],
  "nodes": [
    {
      "children": [
        1
      ],
      "name": "RootNode (gltf orientation matrix)",
      "rotation": [
        -0.70710678118654746,
        -0,
        -0,
        0.70710678118654757
      ]
    },
    {
      "children": [
        2
      ],
      "matrix": [
        1,
        0,
        0,
        0,
        0,
        -0.74378293752670288,
        0.66842126846313477,
        0,
        0,
        -0.66842126846313477,
        -0.74378293752670288,
        0,
        0,
        -44.994770050048828,
        13.554647445678711,
        1
      ],
      "name": "RootNode (model correction matrix)"
    },
    {
      "children": [
        3,
        4
      ],
      "name": "Kavicsok.obj.cleaner.gles"
    },
    {
      "mesh": 0,
      "name": ""
    },
    {
      "mesh": 1,
      "name": ""
    }
  ],
  "samplers": [
    {
      "magFilter": 9729,
      "minFilter": 9987,
      "wrapS": 10497,
      "wrapT": 10497
    }
  ],
  "scene": 0,
  "scenes": [
    {
      "name": "OSG_Scene",
      "nodes": [
        0
      ]
    }
  ],
  "textures": [
    {
      "sampler": 0,
      "source": 0
    }
  ]
}

