{
  "accessors": [
    {
      "bufferView": 2,
      "componentType": 5126,
      "count": 65532,
      "max": [
        12.626815795898438,
        17.548810958862305,
        19.073001861572266
      ],
      "min": [
        -32.466598510742188,
        -15.959301948547363,
        -1.4689960479736328
      ],
      "type": "VEC3"
    },
    {
      "bufferView": 2,
      "byteOffset": 786384,
      "componentType": 5126,
      "count": 65532,
      "max": [
        0.99998396635055542,
        0.99995201826095581,
        0.99999934434890747
      ],
      "min": [
        -0.99999052286148071,
        -0.9999886155128479,
        -1
      ],
      "type": "VEC3"
    },
    {
      "bufferView": 3,
      "componentType": 5126,
      "count": 65532,
      "max": [
        1,
        0.99909520149230957,
        1,
        -1
      ],
      "min": [
        -0.99999988079071045,
        -0.9975166916847229,
        -1,
        -1
      ],
      "type": "VEC4"
    },
    {
      "bufferView": 1,
      "componentType": 5126,
      "count": 65532,
      "max": [
        0.99980002641677856,
        0.5655519962310791
      ],
      "min": [
        0.00012199999764561653,
        0.00022699999681208283
      ],
      "type": "VEC2"
    },
    {
      "bufferView": 0,
      "componentType": 5125,
      "count": 218535,
      "max": [
        65531
      ],
      "min": [
        0
      ],
      "type": "SCALAR"
    },
    {
      "bufferView": 2,
      "byteOffset": 1572768,
      "componentType": 5126,
      "count": 27371,
      "max": [
        9.1673793792724609,
        16.725738525390625,
        17.690998077392578
      ],
      "min": [
        -23.19610595703125,
        -13.401021003723145,
        -1.0295314788818359
      ],
      "type": "VEC3"
    },
    {
      "bufferView": 2,
      "byteOffset": 1901220,
      "componentType": 5126,
      "count": 27371,
      "max": [
        0.99997121095657349,
        0.99992132186889648,
        0.99999964237213135
      ],
      "min": [
        -0.99998933076858521,
        -0.99997419118881226,
        -0.99978506565093994
      ],
      "type": "VEC3"
    },
    {
      "bufferView": 3,
      "byteOffset": 1048512,
      "componentType": 5126,
      "count": 27371,
      "max": [
        1,
        0.99962741136550903,
        0.99999809265136719,
        1
      ],
      "min": [
        -1,
        -0.98629087209701538,
        -1,
        -1
      ],
      "type": "VEC4"
    },
    {
      "bufferView": 1,
      "byteOffset": 524256,
      "componentType": 5126,
      "count": 27371,
      "max": [
        0.99968802928924561,
        0.56628400087356567
      ],
      "min": [
        0.00012199999764561653,
        0.0064340000972151756
      ],
      "type": "VEC2"
    },
    {
      "bufferView": 0,
      "byteOffset": 874140,
      "componentType": 5125,
      "count": 81459,
      "max": [
        27370
      ],
      "min": [
        0
      ],
      "type": "SCALAR"
    }
  ],
  "asset": {
    "extras": {
      "author": "DierveK (https://sketchfab.com/diervek)",
      "license": "CC-BY-4.0 (http://creativecommons.org/licenses/by/4.0/)",
      "source": "https://sketchfab.com/models/65a693f6770749e59bd58f759d5182c5",
      "title": "Buffilo Bill's grave on Lookout MT Golden, CO."
    },
    "generator": "Sketchfab-3.18.7",
    "version": "2.0"
  },
  "bufferViews": [
    {
      "buffer": 0,
      "byteLength": 1199976,
      "byteOffset": 0,
      "name": "floatBufferViews",
      "target": 34963
    },
    {
      "buffer": 0,
      "byteLength": 743224,
      "byteOffset": 1199976,
      "byteStride": 8,
      "name": "floatBufferViews",
      "target": 34962
    },
    {
      "buffer": 0,
      "byteLength": 2229672,
      "byteOffset": 1943200,
      "byteStride": 12,
      "name": "floatBufferViews",
      "target": 34962
    },
    {
      "buffer": 0,
      "byteLength": 1486448,
      "byteOffset": 4172872,
      "byteStride": 16,
      "name": "floatBufferViews",
      "target": 34962
    }
  ],
  "buffers": [
    {
      "byteLength": 5659320,
      "uri": "scene.bin"
    }
  ],
  "images": [
    {
      "uri": "textures/model_Material_u1_v1_baseColor.jpeg"
    }
  ],
  "materials": [
    {
      "doubleSided": true,
      "emissiveFactor": [
        0,
        0,
        0
      ],
      "name": "model_Material_u1_v1",
      "pbrMetallicRoughness": {
        "baseColorFactor": [
          1,
          1,
          1,
          1
        ],
        "baseColorTexture": {
          "index": 0,
          "texCoord": 0
        },
        "metallicFactor": 0,
        "roughnessFactor": 1
      }
    }
  ],
  "meshes": [
    {
      "primitives": [
        {
          "attributes": {
            "NORMAL": 1,
            "POSITION": 0,
            "TANGENT": 2,
            "TEXCOORD_0": 3
          },
          "indices": 4,
          "material": 0,
          "mode": 4
        }
      ]
    },
    {
      "primitives": [
        {
          "attributes": {
            "NORMAL": 6,
            "POSITION": 5,
            "TANGENT": 7,
            "TEXCOORD_0": 8
          },
          "indices": 9,
          "material": 0,
          "mode": 4
        }
      ]
    }
  ],
  "nodes": [
    {
      "children": [
        1
      ],
      "name": "RootNode (gltf orientation matrix)",
      "rotation": [
        -0.70710678118654746,
        -0,
        -0,
        0.70710678118654757
      ]
    },
    {
      "children": [
        2
      ],
      "matrix": [
        0.99595463275909424,
        -0.089857310056686401,
        0,
        0,
        0.089857310056686401,
        0.99595463275909424,
        0,
        0,
        0,
        0,
        1,
        0,
        -0.1115477979183197,
        -0.8881651759147644,
        0,
        1
      ],
      "name": "RootNode (model correction matrix)"
    },
    {
      "children": [
        3,
        4
      ],
      "name": "model.obj.cleaner.materialmerger.gles"
    },
    {
      "mesh": 0,
      "name": ""
    },
    {
      "mesh": 1,
      "name": ""
    }
  ],
  "samplers": [
    {
      "magFilter": 9729,
      "minFilter": 9987,
      "wrapS": 10497,
      "wrapT": 10497
    }
  ],
  "scene": 0,
  "scenes": [
    {
      "name": "OSG_Scene",
      "nodes": [
        0
      ]
    }
  ],
  "textures": [
    {
      "sampler": 0,
      "source": 0
    }
  ]
}

