{
  "accessors": [
    {
      "bufferView": 2,
      "componentType": 5126,
      "count": 2724,
      "max": [
        66.932716369628906,
        197.35992431640625,
        155.02401733398438
      ],
      "min": [
        -66.932716369628906,
        -206.99581909179688,
        0.26629257202148438
      ],
      "type": "VEC3"
    },
    {
      "bufferView": 2,
      "byteOffset": 32688,
      "componentType": 5126,
      "count": 2724,
      "max": [
        1,
        0.99997568130493164,
        0.99993723630905151
      ],
      "min": [
        -1,
        -0.99895727634429932,
        -1
      ],
      "type": "VEC3"
    },
    {
      "bufferView": 3,
      "componentType": 5126,
      "count": 2724,
      "max": [
        1,
        1,
        1,
        1
      ],
      "min": [
        -1,
        -1,
        -0.99999815225601196,
        -1
      ],
      "type": "VEC4"
    },
    {
      "bufferView": 1,
      "componentType": 5126,
      "count": 2724,
      "max": [
        0.99641972780227661,
        0.99799990653991699
      ],
      "min": [
        0.0020000000949949026,
        0.0020000000949949026
      ],
      "type": "VEC2"
    },
    {
      "bufferView": 0,
      "componentType": 5125,
      "count": 8646,
      "max": [
        2723
      ],
      "min": [
        0
      ],
      "type": "SCALAR"
    },
    {
      "bufferView": 2,
      "byteOffset": 65376,
      "componentType": 5126,
      "count": 63,
      "max": [
        46.215492248535156,
        -67.856178283691406,
        148.25167846679688
      ],
      "min": [
        -46.215492248535156,
        -144.6473388671875,
        118.48586273193359
      ],
      "type": "VEC3"
    },
    {
      "bufferView": 2,
      "byteOffset": 66132,
      "componentType": 5126,
      "count": 63,
      "max": [
        0.99993181228637695,
        0.99997055530548096,
        0.48888164758682251
      ],
      "min": [
        -0.99993181228637695,
        -0.91972655057907104,
        -0.23949098587036133
      ],
      "type": "VEC3"
    },
    {
      "bufferView": 3,
      "byteOffset": 43584,
      "componentType": 5126,
      "count": 63,
      "max": [
        0.0060910186730325222,
        0.50189125537872314,
        0.99689650535583496,
        1
      ],
      "min": [
        -1,
        -0.22839447855949402,
        -0.99703985452651978,
        1
      ],
      "type": "VEC4"
    },
    {
      "bufferView": 1,
      "byteOffset": 21792,
      "componentType": 5126,
      "count": 63,
      "max": [
        0.6555253267288208,
        0.68757086992263794
      ],
      "min": [
        0.19373247027397156,
        0.03832724317908287
      ],
      "type": "VEC2"
    },
    {
      "bufferView": 0,
      "byteOffset": 34584,
      "componentType": 5125,
      "count": 156,
      "max": [
        62
      ],
      "min": [
        0
      ],
      "type": "SCALAR"
    },
    {
      "bufferView": 2,
      "byteOffset": 66888,
      "componentType": 5126,
      "count": 4,
      "max": [
        225.44680786132812,
        312.31622314453125,
        0
      ],
      "min": [
        -225.44680786132812,
        -312.31622314453125,
        0
      ],
      "type": "VEC3"
    },
    {
      "bufferView": 2,
      "byteOffset": 66936,
      "componentType": 5126,
      "count": 4,
      "max": [
        0,
        0,
        1
      ],
      "min": [
        0,
        0,
        1
      ],
      "type": "VEC3"
    },
    {
      "bufferView": 3,
      "byteOffset": 44592,
      "componentType": 5126,
      "count": 4,
      "max": [
        1,
        0,
        0,
        1
      ],
      "min": [
        1,
        0,
        0,
        1
      ],
      "type": "VEC4"
    },
    {
      "bufferView": 1,
      "byteOffset": 22296,
      "componentType": 5126,
      "count": 4,
      "max": [
        1,
        1
      ],
      "min": [
        0,
        0
      ],
      "type": "VEC2"
    },
    {
      "bufferView": 0,
      "byteOffset": 35208,
      "componentType": 5125,
      "count": 6,
      "max": [
        3
      ],
      "min": [
        0
      ],
      "type": "SCALAR"
    }
  ],
  "asset": {
    "extras": {
      "author": "Renafox (https://sketchfab.com/kryik1023)",
      "license": "CC-BY-NC-4.0 (http://creativecommons.org/licenses/by-nc/4.0/)",
      "source": "https://sketchfab.com/models/a9f888b7832d4bbf9ed18fe18f00bf89",
      "title": "Old Truck"
    },
    "generator": "Sketchfab-3.19.4",
    "version": "2.0"
  },
  "bufferViews": [
    {
      "buffer": 0,
      "byteLength": 35232,
      "byteOffset": 0,
      "name": "floatBufferViews",
      "target": 34963
    },
    {
      "buffer": 0,
      "byteLength": 22328,
      "byteOffset": 35232,
      "byteStride": 8,
      "name": "floatBufferViews",
      "target": 34962
    },
    {
      "buffer": 0,
      "byteLength": 66984,
      "byteOffset": 57560,
      "byteStride": 12,
      "name": "floatBufferViews",
      "target": 34962
    },
    {
      "buffer": 0,
      "byteLength": 44656,
      "byteOffset": 124544,
      "byteStride": 16,
      "name": "floatBufferViews",
      "target": 34962
    }
  ],
  "buffers": [
    {
      "byteLength": 169200,
      "uri": "scene.bin"
    }
  ],
  "images": [
    {
      "uri": "textures/Material_77_baseColor.png"
    },
    {
      "uri": "textures/Material_77_metallicRoughness.png"
    },
    {
      "uri": "textures/Material_77_normal.png"
    },
    {
      "uri": "textures/Material_75_baseColor.png"
    },
    {
      "uri": "textures/Material_76_baseColor.png"
    },
    {
      "uri": "textures/Material_76_normal.png"
    },
    {
      "uri": "textures/Material_76_metallicRoughness.png"
    }
  ],
  "materials": [
    {
      "doubleSided": true,
      "name": "Material_76",
      "normalTexture": {
        "index": 5,
        "scale": 1,
        "texCoord": 0
      },
      "occlusionTexture": {
        "index": 6,
        "strength": 1,
        "texCoord": 0
      },
      "pbrMetallicRoughness": {
        "baseColorFactor": [
          1,
          1,
          1,
          1
        ],
        "baseColorTexture": {
          "index": 4,
          "texCoord": 0
        },
        "metallicFactor": 1,
        "metallicRoughnessTexture": {
          "index": 6,
          "texCoord": 0
        },
        "roughnessFactor": 1
      }
    },
    {
      "alphaMode": "BLEND",
      "doubleSided": true,
      "name": "Material_77",
      "normalTexture": {
        "index": 2,
        "scale": 1,
        "texCoord": 0
      },
      "occlusionTexture": {
        "index": 1,
        "strength": 1,
        "texCoord": 0
      },
      "pbrMetallicRoughness": {
        "baseColorFactor": [
          1,
          1,
          1,
          1
        ],
        "baseColorTexture": {
          "index": 0,
          "texCoord": 0
        },
        "metallicFactor": 1,
        "metallicRoughnessTexture": {
          "index": 1,
          "texCoord": 0
        },
        "roughnessFactor": 1
      }
    },
    {
      "alphaMode": "BLEND",
      "doubleSided": true,
      "emissiveFactor": [
        0,
        0,
        0
      ],
      "name": "Material_75",
      "pbrMetallicRoughness": {
        "baseColorFactor": [
          1,
          1,
          1,
          1
        ],
        "baseColorTexture": {
          "index": 3,
          "texCoord": 0
        },
        "metallicFactor": 0,
        "roughnessFactor": 1
      }
    }
  ],
  "meshes": [
    {
      "name": "Object001_Material #76_0",
      "primitives": [
        {
          "attributes": {
            "NORMAL": 1,
            "POSITION": 0,
            "TANGENT": 2,
            "TEXCOORD_0": 3
          },
          "indices": 4,
          "material": 0,
          "mode": 4
        }
      ]
    },
    {
      "name": "Object002_Material #77_0",
      "primitives": [
        {
          "attributes": {
            "NORMAL": 6,
            "POSITION": 5,
            "TANGENT": 7,
            "TEXCOORD_0": 8
          },
          "indices": 9,
          "material": 1,
          "mode": 4
        }
      ]
    },
    {
      "name": "Plane001_Material #75_0",
      "primitives": [
        {
          "attributes": {
            "NORMAL": 11,
            "POSITION": 10,
            "TANGENT": 12,
            "TEXCOORD_0": 13
          },
          "indices": 14,
          "material": 2,
          "mode": 4
        }
      ]
    }
  ],
  "nodes": [
    {
      "children": [
        1
      ],
      "name": "RootNode (gltf orientation matrix)",
      "rotation": [
        -0.70710678118654746,
        -0,
        -0,
        0.70710678118654757
      ]
    },
    {
      "children": [
        2
      ],
      "name": "RootNode (model correction matrix)"
    },
    {
      "children": [
        3
      ],
      "matrix": [
        1,
        0,
        0,
        0,
        0,
        0,
        1,
        0,
        0,
        -1,
        0,
        0,
        0,
        0,
        0,
        1
      ],
      "name": "coe.FBX"
    },
    {
      "children": [
        4,
        6,
        8
      ],
      "name": "RootNode"
    },
    {
      "children": [
        5
      ],
      "matrix": [
        1,
        0,
        0,
        0,
        0,
        2.2204460492503131e-16,
        -1,
        0,
        0,
        1,
        2.2204460492503131e-16,
        0,
        0,
        0,
        0,
        1
      ],
      "name": "Object001"
    },
    {
      "mesh": 0,
      "name": "Object001_Material #76_0"
    },
    {
      "children": [
        7
      ],
      "matrix": [
        1,
        0,
        0,
        0,
        0,
        2.2204460492503131e-16,
        -1,
        0,
        0,
        1,
        2.2204460492503131e-16,
        0,
        0,
        0,
        0,
        1
      ],
      "name": "Object002"
    },
    {
      "mesh": 1,
      "name": "Object002_Material #77_0"
    },
    {
      "children": [
        9
      ],
      "matrix": [
        0.62130296230316162,
        0,
        0,
        0,
        0,
        1.9551292574373585e-16,
        -0.88051193952560425,
        0,
        0,
        1,
        2.2204460492503131e-16,
        0,
        0.722198486328125,
        0,
        -1.0549163818359375,
        1
      ],
      "name": "Plane001"
    },
    {
      "mesh": 2,
      "name": "Plane001_Material #75_0"
    }
  ],
  "samplers": [
    {
      "magFilter": 9729,
      "minFilter": 9987,
      "wrapS": 10497,
      "wrapT": 10497
    }
  ],
  "scene": 0,
  "scenes": [
    {
      "name": "OSG_Scene",
      "nodes": [
        0
      ]
    }
  ],
  "textures": [
    {
      "sampler": 0,
      "source": 0
    },
    {
      "sampler": 0,
      "source": 1
    },
    {
      "sampler": 0,
      "source": 2
    },
    {
      "sampler": 0,
      "source": 3
    },
    {
      "sampler": 0,
      "source": 4
    },
    {
      "sampler": 0,
      "source": 5
    },
    {
      "sampler": 0,
      "source": 6
    }
  ]
}

